<?xml version="1.0" encoding="UTF-8"?> <svg xmlns="http://www.w3.org/2000/svg" width="55" height="55" viewBox="0 0 55 55" fill="none"> <rect x="0.410448" y="0.410448" width="54.1791" height="54.1791" rx="6.97761" stroke="url(#paint0_linear_532_5475)" stroke-width="0.820895"></rect> <path fill-rule="evenodd" clip-rule="evenodd" d="M30.1109 13.1609C32.5024 13.4212 34.8567 13.9704 37.5469 14.8959C39.6862 15.6319 42.9637 17.1548 43.1875 17.5168C43.38 17.8285 42.3756 22.3842 41.565 24.8756C40.3302 28.6711 38.0932 32.8914 35.5159 36.2875C34.4463 37.6971 28.2607 44 27.9471 44C27.5548 44 21.5124 37.8906 20.2664 36.2342C16.5483 31.2918 14.0207 25.6434 12.9307 19.8419C12.4578 17.3252 12.3512 17.5362 14.6729 16.3936C17.1929 15.1533 20.482 14.0578 23.2194 13.547C26.4705 12.9405 27.5361 12.8807 30.1109 13.1609ZM25.9634 14.5002C22.8677 14.7982 18.877 15.9297 15.8212 17.376C13.8904 18.2897 13.9513 18.1206 14.5527 20.8962C15.6382 25.9064 18.2313 31.3617 21.5484 35.6136C22.8846 37.3264 27.6191 42.0957 27.9832 42.0957C28.2718 42.0957 33.2656 36.9523 34.3621 35.5258C38.0336 30.7491 40.7977 24.4753 41.6678 18.9431L41.7899 18.1659L40.0886 17.3865C35.3628 15.2217 29.9525 14.1162 25.9634 14.5002ZM32.0979 16.3961C35.4777 17.0849 40.0553 18.7523 40.0522 19.2935C40.0492 19.8351 39.2686 22.7131 38.6247 24.5576C37.4616 27.8886 35.5994 31.342 33.3763 34.2903C32.1141 35.9644 28.2822 40.0009 27.9554 40.0009C27.5426 40.0009 23.0271 35.1636 21.731 33.333C20.2501 31.2411 18.4566 27.8734 17.4878 25.3648C16.8815 23.7951 15.5931 19.2552 15.7222 19.1438C16.4412 18.523 20.9466 16.9443 23.5215 16.4109C26.026 15.892 29.5939 15.8859 32.0979 16.3961ZM24.0551 17.7085C22.1557 18.1094 19.4866 18.9041 18.2307 19.4424L17.3446 19.8221L17.4692 20.6012C17.9327 23.4992 20.588 29.3814 22.8666 32.5574C24.1497 34.3459 27.5536 38.0966 27.8936 38.0966C27.9922 38.0966 28.5191 37.6463 29.0645 37.0959C31.9947 34.1382 34.278 30.9203 35.9513 27.3904C37.0426 25.0885 38.6364 20.367 38.4692 19.9312C38.3412 19.5976 33.4355 18.0197 31.3204 17.6316C29.2184 17.2462 26.089 17.2793 24.0551 17.7085ZM33.7322 21.7173C34.1228 22.0429 34.1439 22.1326 33.9226 22.5295C33.1824 23.8581 28.1206 31.2348 27.9471 31.2377C27.7631 31.2407 23.2583 26.0862 23.1593 25.7594C23.1366 25.6845 23.3421 25.46 23.6157 25.2601L24.1133 24.8969L24.7684 25.6331C25.1287 26.038 25.9455 26.9898 26.5832 27.7482C27.2212 28.5067 27.805 29.0889 27.8806 29.042C27.9564 28.9954 29.162 27.2428 30.56 25.1479C31.9581 23.0528 33.1449 21.3416 33.1974 21.345C33.2502 21.3486 33.4907 21.516 33.7322 21.7173Z" fill="#ECF7FF"></path> <defs> <linearGradient id="paint0_linear_532_5475" x1="-26.5" y1="-28.5" x2="80.5" y2="55" gradientUnits="userSpaceOnUse"> <stop stop-color="white"></stop> <stop offset="1" stop-color="white" stop-opacity="0"></stop> </linearGradient> </defs> </svg> 