<?xml version="1.0" encoding="UTF-8"?> <svg xmlns="http://www.w3.org/2000/svg" width="55" height="55" viewBox="0 0 55 55" fill="none"> <rect x="0.410448" y="0.410448" width="54.1791" height="54.1791" rx="6.97761" stroke="url(#paint0_linear_532_5478)" stroke-width="0.820895"></rect> <path fill-rule="evenodd" clip-rule="evenodd" d="M29.2865 9.45621C31.2196 10.1907 32.6293 11.4891 33.5712 13.4025C34.6547 15.603 34.7138 17.8871 33.7424 19.9939C32.3626 22.9852 30.1846 24.5011 27.0016 24.6854C24.2099 24.8471 22.8077 24.3192 20.8805 22.3813C19.6822 21.1762 19.2704 20.552 18.9099 19.3927C18.295 17.4153 18.4628 15.0584 19.3425 13.3257C20.1285 11.7773 22.0446 10.0008 23.5439 9.43094C25.081 8.84653 27.7121 8.85804 29.2865 9.45621ZM23.7713 10.7456C18.5129 13.123 18.4386 20.5102 23.6485 22.9592C25.3029 23.737 27.7722 23.6862 29.4703 22.8399C34.592 20.2878 34.2642 12.8556 28.932 10.6298C27.57 10.0614 25.1653 10.1152 23.7713 10.7456ZM41.0945 17.5029C46.1776 20.7121 47.1883 21.5732 47.439 22.9104C47.8313 25.0014 47.5688 25.4002 41.8616 31.3834C39.8236 33.5197 38.1204 35.3702 38.0762 35.4958C38.0321 35.6214 39.0453 35.7567 40.3277 35.7965C42.53 35.8646 42.6641 35.8998 42.7397 36.4315C42.818 36.9833 42.7697 36.9944 40.3005 36.9944H37.7812V38.2322V39.4699L39.0946 39.5457C40.3525 39.618 40.4111 39.653 40.4766 40.3717C40.5309 40.9657 40.2279 41.5271 39.0253 43.0611L37.5055 45H26.7877H16.0702L14.417 42.9761C12.2152 40.2809 12.2485 39.4961 14.5648 39.4961H15.7657V38.2452V36.9944H13.2639H10.7622V36.3689C10.7622 35.7477 10.7774 35.7435 13.0345 35.7435C14.3162 35.7435 15.2706 35.6429 15.2236 35.5126C15.1778 35.3857 13.2827 33.2897 11.0123 30.855C8.742 28.4203 6.68805 26.1317 6.44838 25.7697C5.79918 24.7895 5.86497 22.7718 6.58073 21.7081C7.1849 20.8105 16.2733 14.7632 17.0524 14.7407C17.576 14.7254 17.8949 15.5117 17.4646 15.7571C17.287 15.8585 15.0589 17.2727 12.5134 18.9001C8.63267 21.3809 7.80984 22.0128 7.41932 22.8124C7.00628 23.6577 6.99227 23.8611 7.29423 24.6031C7.60069 25.3564 14.9764 33.4984 15.535 33.7003C15.6621 33.7463 15.7657 32.9693 15.7657 31.9688C15.7657 29.0205 14.8921 29.2389 26.6871 29.2389C38.5122 29.2389 37.7812 29.0658 37.7812 31.8657C37.7812 32.7601 37.8563 33.4919 37.9478 33.4919C38.1422 33.4919 44.1359 27.2633 45.4161 25.7309C46.407 24.5451 46.5419 23.5121 45.8481 22.4271C45.5982 22.0366 43.2711 20.3919 40.4081 18.5826C37.6561 16.8434 35.3025 15.3258 35.1774 15.2103C34.8661 14.9221 35.5216 14.1718 35.9434 14.3336C36.127 14.4039 38.4449 15.8302 41.0945 17.5029ZM36.7822 22.8999C38.9325 24.7753 38.9323 25.1868 36.7805 25.901C34.5041 26.6568 31.3512 26.9861 26.3982 26.9851C20.2706 26.9841 15.0319 26.0627 14.8173 24.9481C14.713 24.4062 17.8864 21.6298 18.3895 21.8229C19.0242 22.0666 18.8173 22.6312 17.7353 23.6089C16.5287 24.6989 16.6003 24.7933 19.0007 25.2789C21.2528 25.7344 32.0439 25.7344 34.296 25.2789C36.794 24.7735 36.8638 24.6567 35.4273 23.387C34.5707 22.6302 34.2467 22.1779 34.3563 21.8927C34.6142 21.22 35.0753 21.4114 36.7822 22.8999ZM17.0166 37.2445V44.005L26.7109 43.9397L36.4052 43.8742V37.2445V30.6149L26.7109 30.5493L17.0166 30.484V37.2445ZM27.3989 37.3661C27.3989 37.918 26.6211 38.193 26.2133 37.7852C25.7928 37.3646 26.2076 36.7001 26.835 36.7892C27.204 36.8415 27.3989 37.0411 27.3989 37.3661ZM14.5148 40.8808C14.5148 41.1615 15.3331 42.2481 15.5443 42.2481C15.6661 42.2481 15.7657 41.9103 15.7657 41.4975C15.7657 40.8638 15.6684 40.747 15.1403 40.747C14.7963 40.747 14.5148 40.8073 14.5148 40.8808ZM37.7812 41.4975C37.7812 42.3957 37.9241 42.4307 38.5457 41.6852C39.1757 40.9301 39.1484 40.747 38.4066 40.747C37.8785 40.747 37.7812 40.8638 37.7812 41.4975Z" fill="white"></path> <defs> <linearGradient id="paint0_linear_532_5478" x1="-26.5" y1="-28.5" x2="80.5" y2="55" gradientUnits="userSpaceOnUse"> <stop stop-color="white"></stop> <stop offset="1" stop-color="white" stop-opacity="0"></stop> </linearGradient> </defs> </svg> 