<?xml version="1.0" encoding="UTF-8"?> <svg xmlns="http://www.w3.org/2000/svg" width="55" height="55" viewBox="0 0 55 55" fill="none"> <rect x="0.410448" y="0.410448" width="54.1791" height="54.1791" rx="6.97761" stroke="url(#paint0_linear_532_5476)" stroke-width="0.820895"></rect> <path fill-rule="evenodd" clip-rule="evenodd" d="M29.2042 13.1337C33.8398 13.7011 37.4383 17.3256 37.9668 21.96C38.1698 23.7399 37.822 25.7851 37.0608 27.2884C36.8029 27.7976 36.6666 27.9328 36.4445 27.8996C35.9004 27.8184 35.8474 27.4768 36.2348 26.545C36.4318 26.0713 36.6678 25.4087 36.7595 25.0725C36.9854 24.2449 36.9842 21.9155 36.7576 20.9975C36.2916 19.1097 35.0161 17.1152 33.5783 16.0256C29.8912 13.2315 25.0902 13.5141 21.8546 16.7158C20.0752 18.4764 19.2204 20.5263 19.2204 23.0323C19.2204 24.4674 19.5308 25.8445 20.1136 26.9946C20.5274 27.8109 20.46 28.2331 19.9262 28.1706C19.4444 28.1143 19.073 27.5275 18.5935 26.0645C18.2369 24.9765 18.2016 24.6974 18.2023 22.9671C18.2029 21.1814 18.2288 20.9928 18.628 19.8754C19.5873 17.1904 21.4266 15.1327 23.8757 14.0049C25.2024 13.3939 25.7088 13.2658 27.8458 13.001C27.9205 12.9916 28.5318 13.0514 29.2042 13.1337ZM27.2298 17.5927C27.3071 17.7372 27.3704 18.0734 27.3704 18.3398V18.8242H28.1175H28.8646V18.3398C28.8646 17.6883 29.078 17.33 29.4661 17.33C29.8434 17.33 29.9513 17.5532 29.9513 18.3337C29.9513 18.8723 29.9845 18.9224 30.4913 19.146C31.2529 19.482 31.6231 20.0607 31.6928 21.0249C31.7422 21.7091 31.7012 21.8912 31.3911 22.3598L31.0321 22.9022L31.3319 23.3078C31.5364 23.5845 31.6504 23.9702 31.6902 24.5212C31.7625 25.5205 31.4381 26.1286 30.5575 26.6448C29.9916 26.9764 29.9629 27.0238 29.9241 27.6963C29.8877 28.3262 29.8483 28.4053 29.5514 28.4473C29.1191 28.5083 28.8646 28.1541 28.8646 27.4916V26.9742H28.1175H27.3704V27.4916C27.3704 28.1541 27.1159 28.5083 26.6836 28.4473C26.386 28.4053 26.3475 28.3266 26.3106 27.6873L26.2695 26.9742H25.6141C24.8859 26.9742 24.607 26.7641 24.6772 26.2685C24.7169 25.9889 24.8049 25.9511 25.5027 25.9147L26.2837 25.8739V22.8992V19.9244L25.5027 19.8837C24.7912 19.8466 24.7174 19.8133 24.6748 19.5109C24.6119 19.0658 24.9721 18.8242 25.6984 18.8242H26.2837V18.1677C26.2837 17.8065 26.3245 17.4703 26.3743 17.4206C26.5619 17.2329 27.0945 17.34 27.2298 17.5927ZM27.3704 21.1333V22.3558H28.6019C29.2792 22.3558 29.9567 22.2898 30.1075 22.2091C30.5386 21.9784 30.7903 21.2428 30.6126 20.7333C30.396 20.1119 29.8874 19.9108 28.5318 19.9108H27.3704V21.1333ZM27.3704 24.665V25.8875H28.5318C29.8729 25.8875 30.3727 25.6946 30.6277 25.0789C30.7657 24.7461 30.7657 24.5842 30.6283 24.2521C30.3456 23.5698 30.0315 23.4425 28.6305 23.4425H27.3704V24.665ZM39.026 28.4716C39.5303 28.779 39.9954 29.6629 40 30.3222C40.0062 31.2243 37.9512 34.4244 36.1666 36.2912C35.5135 36.9746 34.1849 38.1529 33.2144 38.9098L31.4496 40.2859H25.8271H20.2046L20.273 40.8926C20.3402 41.4894 20.3262 41.5149 19.413 42.461C18.6747 43.2256 18.4138 43.4144 18.1393 43.3824C17.8857 43.3529 17.7837 43.2521 17.7547 43.0026C17.7247 42.7437 17.8942 42.4867 18.4679 41.9205C18.8818 41.5122 19.2204 41.1057 19.2204 41.017C19.2204 40.7457 17.3861 38.4645 16.2534 37.3273C15.257 36.3269 13.9311 35.2052 12.8579 34.4547L12.4042 34.1375L11.5638 34.9705C10.7164 35.8103 10.445 35.9387 10.1467 35.6404C9.83603 35.3298 9.98802 35.0287 10.9007 34.1476C12.022 33.0651 12.2536 32.9777 13.0186 33.3481C13.339 33.5032 13.639 33.6301 13.6853 33.6301C13.7316 33.6301 14.6444 32.8618 15.7138 31.9228C16.7832 30.9837 17.9334 30.0515 18.2695 29.8513C18.8779 29.4888 18.8934 29.4871 21.5975 29.4871H24.3142L24.9505 29.8612C25.3005 30.0669 25.7172 30.4184 25.8767 30.6423C26.1644 31.0462 26.176 31.0492 27.4815 31.05C28.2048 31.0504 29.0383 31.1178 29.3336 31.1999C30.0007 31.385 30.7396 32.1046 30.855 32.6814L30.942 33.1165L31.6352 33.026C32.7929 32.8751 32.8743 32.8282 33.7016 31.8324C34.1417 31.3031 34.8684 30.5633 35.3167 30.1887C36.3573 29.319 38.0705 28.1966 38.3564 28.1972C38.4776 28.1975 38.779 28.321 39.026 28.4716ZM37.3371 29.963C36.3341 30.652 35.2999 31.609 34.0221 33.0302L33.2792 33.8566L32.1011 34.0275C31.025 34.1836 30.8854 34.2397 30.4896 34.6748C29.7508 35.4866 29.5087 35.5317 25.8917 35.5317C24.1024 35.5317 22.5418 35.4947 22.4236 35.4493C22.1403 35.3406 22.1403 34.6362 22.4236 34.5275C22.5418 34.4821 24.1195 34.4451 25.9296 34.4451C29.0481 34.4451 29.2364 34.4307 29.5164 34.1696C29.9132 33.8 30.0144 33.3233 29.7937 32.863C29.5126 32.2769 29.0863 32.1401 27.5334 32.1379C25.9833 32.1356 25.5387 31.9914 25.0747 31.3396C24.5591 30.6155 24.1046 30.5059 21.6198 30.5059C20.3845 30.5059 19.2135 30.5669 19.0174 30.6414C18.8213 30.716 17.7981 31.5259 16.7435 32.4412C15.6888 33.3566 14.7603 34.1509 14.6801 34.2064C14.5912 34.2678 14.932 34.6639 15.5529 35.2204C16.8366 36.3713 17.9765 37.5506 18.7748 38.554L19.3963 39.3351L25.1832 39.3339L30.97 39.3326L32.7359 37.9303C33.7071 37.1589 34.9535 36.0499 35.5058 35.4657C36.7815 34.1162 38.9163 30.8835 38.9163 30.301C38.9163 29.9035 38.5949 29.2755 38.3992 29.2907C38.3474 29.2948 37.8694 29.5973 37.3371 29.963ZM13.2776 36.4125C13.8359 36.9038 13.738 37.5692 13.1072 37.5692C13.0443 37.5692 12.8048 37.411 12.575 37.2176C12.1864 36.8906 12.0288 36.3844 12.2476 36.1657C12.4341 35.979 12.9166 36.0946 13.2776 36.4125Z" fill="#F7FCFF"></path> <defs> <linearGradient id="paint0_linear_532_5476" x1="-26.5" y1="-28.5" x2="80.5" y2="55" gradientUnits="userSpaceOnUse"> <stop stop-color="white"></stop> <stop offset="1" stop-color="white" stop-opacity="0"></stop> </linearGradient> </defs> </svg> 