<?xml version="1.0" encoding="UTF-8"?> <svg xmlns="http://www.w3.org/2000/svg" width="55" height="55" viewBox="0 0 55 55" fill="none"> <rect x="0.410448" y="0.410448" width="54.1791" height="54.1791" rx="6.97761" stroke="url(#paint0_linear_532_5480)" stroke-width="0.820895"></rect> <path fill-rule="evenodd" clip-rule="evenodd" d="M39.1178 12.5663C40.0523 13.0496 40.4378 13.7217 40.4378 14.8679C40.4378 15.8121 40.3784 15.9553 39.7099 16.6241C39.0081 17.3256 38.821 17.3933 37.4846 17.4293C36.9029 17.4451 36.7709 17.6094 34.5476 21.0875L32.2198 24.7291L32.5783 25.3978C33.3168 26.776 32.8598 28.4292 31.5709 29.0408C30.3332 29.6281 28.9177 29.2679 28.2406 28.1931C27.9274 27.696 27.8638 27.3485 27.9218 26.4472C27.9923 25.3492 27.9773 25.3072 27.3011 24.7122C26.6094 24.1037 26.6066 24.1031 25.8963 24.3998C25.5047 24.5635 24.9819 24.6586 24.7345 24.6113C24.3289 24.5337 24.198 24.6995 23.4096 26.2865C22.6698 27.7755 22.571 28.0979 22.77 28.3726C23.7312 29.7007 23.7215 30.854 22.7403 31.9248C21.6197 33.1475 19.5342 32.9543 18.677 31.5482C17.63 29.8314 18.8606 27.6662 20.8832 27.6662H21.6004L22.4834 25.8884L23.3665 24.1106L22.9007 23.4244C21.341 21.1261 24.0911 18.3032 26.3923 19.8406C27.498 20.5791 27.8936 21.8363 27.4391 23.1655C27.3806 23.3365 27.6309 23.6945 28.0776 24.0786C28.6938 24.6085 28.8589 24.6719 29.1006 24.4712C29.259 24.3398 29.8284 24.2169 30.3657 24.1982L31.3427 24.1644L33.7389 20.4506C36.0127 16.9271 36.1192 16.7193 35.8214 16.39C35.3605 15.8809 35.263 14.3612 35.644 13.6242C36.2584 12.4364 37.8998 11.9364 39.1178 12.5663ZM36.8604 13.7746C36.2753 14.3597 36.1787 14.8756 36.5303 15.536C36.856 16.1476 37.2733 16.4019 37.9615 16.4084C39.5094 16.4234 40.0995 14.2055 38.7356 13.5002C37.9497 13.0938 37.4709 13.164 36.8604 13.7746ZM29.0818 14.349C31.3701 14.9341 34.1401 16.5828 33.7892 17.1507C33.5739 17.4991 33.1418 17.3751 31.8481 16.5939C29.8899 15.4113 28.3688 15.0123 25.8106 15.01C24.099 15.0083 23.3832 15.0938 22.3413 15.4239C17.085 17.0893 13.7273 21.9649 14.0508 27.4621C14.343 32.4242 17.4873 36.4129 22.435 38.0979C23.9023 38.5974 27.7269 38.5959 29.1861 38.095C32.5794 36.9301 35.064 34.7662 36.5219 31.7061C37.7806 29.064 37.9531 25.7067 36.9701 22.9779C36.3263 21.1902 36.2938 20.8214 36.781 20.8214C37.6307 20.8214 38.5642 23.9407 38.5597 26.7655C38.5566 28.8214 38.2061 30.4656 37.3963 32.2256L36.8084 33.5032L40.1971 36.9138C42.0609 38.7897 43.6793 40.5087 43.7933 40.734C44.1275 41.3937 44.0437 42.8774 43.6341 43.5491C42.9434 44.6818 41.6077 45.2318 40.3544 44.8994C39.7299 44.7338 38.9672 44.0752 36.0864 41.2135L32.5791 37.7292L31.3044 38.3111C29.338 39.209 27.8344 39.5383 25.7168 39.5347C19.9765 39.5251 15.2041 35.8959 13.4391 30.1978C12.8268 28.2213 12.8585 25.103 13.5115 23.0717C14.9292 18.6612 18.2076 15.4732 22.4756 14.3552C24.3591 13.8616 27.1662 13.859 29.0818 14.349ZM24.3141 20.5933C23.3357 21.0884 23.1814 22.261 23.9818 23.1186C24.8292 24.0264 26.5607 23.3665 26.5607 22.1357C26.5607 21.2502 26.4041 20.9408 25.7971 20.6269C25.1533 20.2938 24.9166 20.2886 24.3141 20.5933ZM29.2714 25.6887C28.448 26.5119 28.8838 28.0182 30.0287 28.3055C30.5866 28.4454 31.5248 28.0144 31.8059 27.489C32.3634 26.4472 31.6082 25.2283 30.405 25.2283C29.9401 25.2283 29.5891 25.3708 29.2714 25.6887ZM19.7952 29.152C19.4648 29.4824 19.247 29.8978 19.247 30.1978C19.247 30.8857 20.1826 31.7918 20.893 31.7918C22.2486 31.7918 22.9455 30.0349 21.9747 29.0642C21.3296 28.4189 20.4947 28.4525 19.7952 29.152ZM34.8585 35.7612C34.1108 36.4898 33.4993 37.1403 33.4993 37.2069C33.4993 37.413 39.7567 43.5535 40.1911 43.7736C40.9776 44.1721 41.7447 44.0245 42.4257 43.3436C42.9211 42.8482 43.0633 42.5513 43.0633 42.0118C43.0633 41.3914 42.8784 41.1246 41.3286 39.5083C40.3745 38.513 38.8343 36.965 37.9058 36.0679L36.2175 34.4367L34.8585 35.7612Z" fill="white"></path> <defs> <linearGradient id="paint0_linear_532_5480" x1="-26.5" y1="-28.5" x2="80.5" y2="55" gradientUnits="userSpaceOnUse"> <stop stop-color="white"></stop> <stop offset="1" stop-color="white" stop-opacity="0"></stop> </linearGradient> </defs> </svg> 