<?xml version="1.0" encoding="UTF-8"?> <svg xmlns="http://www.w3.org/2000/svg" width="55" height="55" viewBox="0 0 55 55" fill="none"> <rect x="0.410448" y="0.410448" width="54.1791" height="54.1791" rx="6.97761" stroke="url(#paint0_linear_532_5479)" stroke-width="0.820895"></rect> <path fill-rule="evenodd" clip-rule="evenodd" d="M23.7551 10.2511C25.0706 10.5086 27.0367 11.626 28.1734 12.7622C30.7083 15.2956 31.6413 19.6202 30.3051 22.6411C29.8995 23.5577 29.6285 23.7506 29.2616 23.3838C29.0095 23.1318 29.0153 23.0079 29.3233 22.069C29.8192 20.557 29.7775 17.8241 29.2373 16.4419C28.6472 14.9324 27.4689 13.4429 26.1879 12.5875C20.6534 8.89169 13.342 12.681 13.3115 19.261C13.3077 20.0533 13.3994 21.057 13.5149 21.4915C14.0927 23.6632 15.9555 25.8741 18.013 26.8304C20.5658 28.0171 23.2175 27.8827 25.7883 26.4368C26.7785 25.8798 27.2543 25.8815 27.2543 26.4418C27.2543 26.87 26.8617 27.2102 25.6902 27.7974C24.1686 28.5597 22.7337 28.8511 21.0087 28.748C17.5592 28.5414 14.6605 26.6207 13.1471 23.5388C11.0092 19.1855 12.3471 14.1997 16.375 11.51C18.5229 10.0757 20.8406 9.68024 23.7551 10.2511ZM20.6174 14.4761L20.6723 15.2329H21.465H22.2578V14.5311C22.2578 13.9872 22.3377 13.8041 22.6131 13.7167C23.1468 13.5471 23.3285 13.7525 23.3285 14.525C23.3285 15.1162 23.4084 15.265 23.8481 15.4924C24.1338 15.6401 24.5353 15.9744 24.7403 16.2349C25.2362 16.8653 25.2505 18.2219 24.7676 18.8357C24.4266 19.2693 24.4266 19.2809 24.7666 19.7967C25.5014 20.9114 25.0555 22.5576 23.8497 23.181C23.41 23.4084 23.3285 23.5585 23.3285 24.1407C23.3285 24.6134 23.2371 24.8659 23.0381 24.9421C22.5992 25.1106 22.2578 24.7178 22.2578 24.0442C22.2578 23.4487 22.248 23.4414 21.4548 23.4414H20.6518V24.1361C20.6518 24.6131 20.5608 24.8657 20.3615 24.9421C19.9225 25.1106 19.5811 24.7178 19.5811 24.0442C19.5811 23.4971 19.5329 23.4414 19.0604 23.4414C18.276 23.4414 17.9751 23.2681 17.9751 22.8168C17.9751 22.3648 18.276 22.1923 19.0649 22.1923H19.5901L19.541 19.2925C19.5008 16.9249 19.4462 16.4026 19.2432 16.446C19.1065 16.4753 18.7605 16.4478 18.4746 16.385C18.039 16.2893 17.9635 16.1937 18.0094 15.7964C18.0581 15.3764 18.1511 15.3159 18.8227 15.2674C19.5478 15.2149 19.5811 15.1869 19.5811 14.6339C19.5811 13.4085 20.5296 13.2641 20.6174 14.4761ZM20.6878 17.5973L20.741 18.7126L21.9455 18.7654C23.0292 18.8129 23.1946 18.7734 23.5961 18.3719C24.1104 17.8577 24.1575 17.4397 23.7644 16.8787C23.5167 16.525 23.332 16.482 22.0608 16.482H20.6348L20.6878 17.5973ZM20.7708 19.9915C20.7053 20.0568 20.6518 20.5788 20.6518 21.1514V22.1923H22.0692C23.3317 22.1923 23.5171 22.1489 23.7644 21.7956C24.1559 21.2367 24.1106 20.8168 23.6042 20.3106C23.2307 19.9371 22.9985 19.8725 22.028 19.8725C21.402 19.8725 20.8361 19.926 20.7708 19.9915ZM28.3803 24.0658C29.0583 24.85 29.8653 25.9739 30.1735 26.5633L30.7339 27.6349L30.8232 33.7038L30.9124 39.7729L31.6924 40.5293C32.388 41.2042 32.5641 41.2859 33.3227 41.2859C34.0975 41.2859 34.2575 41.3651 35.1233 42.1781C35.9638 42.9672 36.1637 43.0704 36.8521 43.0704C37.5545 43.0704 37.7338 43.1689 38.688 44.0789C39.3923 44.7508 39.7454 45.2276 39.7454 45.5065C39.7454 45.7369 39.7119 45.9255 39.6708 45.9255C39.6298 45.9255 39.4781 45.9708 39.3338 46.0261C39.1735 46.0877 38.699 45.7772 38.1146 45.2283C37.2731 44.4378 37.0648 44.3291 36.3833 44.3246C35.6997 44.32 35.504 44.217 34.7188 43.4481C33.9156 42.6617 33.7341 42.5691 32.8526 42.4959C31.9775 42.4233 31.7886 42.3286 31.0309 41.5825L30.1858 40.75L29.3067 41.6424L28.4275 42.535H26.4484H24.4691L23.8638 43.1596L23.2585 43.7841L21.1968 43.7866L19.135 43.789L18.0783 44.8657C17.3486 45.6091 16.9073 45.9258 16.6525 45.8893C15.926 45.7849 16.1379 45.2333 17.3932 43.9603L18.6229 42.7135H20.6718H22.7207L23.4177 41.9997L24.1147 41.2859H26.0928H28.0707L28.9209 40.4226L29.7714 39.5593L29.7173 33.8647L29.6633 28.1702L29.1965 27.1887C28.9397 26.6489 28.197 25.5877 27.5458 24.8306C26.4516 23.5579 26.1693 22.9798 26.4871 22.6619C26.7669 22.3821 27.2064 22.7082 28.3803 24.0658ZM42.4997 23.9723C42.9332 24.1372 42.9574 24.2151 42.9573 25.4444C42.9571 27.1288 42.33 28.5199 41.0222 29.7373C39.4485 31.2021 38.8835 31.3686 35.4627 31.376L32.5184 31.3822L32.5261 29.9546C32.5323 28.8042 32.624 28.3313 32.9986 27.5192C33.8409 25.693 35.6373 24.3309 37.6444 23.9967C38.9571 23.7781 41.9494 23.7631 42.4997 23.9723ZM37.2461 25.2141C36.3678 25.4812 35.7008 25.9243 34.9492 26.7398C34.0602 27.7041 33.7084 28.4546 33.639 29.5348L33.5891 30.3115H35.6412C38.1118 30.3115 39.0547 30.0137 40.3147 28.8349C41.2046 28.0026 41.8868 26.5883 41.8868 25.576V25.0474L39.79 25.0627C38.6367 25.0711 37.492 25.1393 37.2461 25.2141ZM25.0035 31.4793C26.9975 32.2252 28.3201 34.1563 28.3232 36.326L28.3249 37.5223L27.6752 37.6442C26.6922 37.8287 23.705 37.6012 22.7583 37.2696C20.5993 36.5137 18.7979 33.5514 19.2944 31.5733L19.4095 31.1145H21.7193C23.6083 31.1145 24.2062 31.1809 25.0035 31.4793ZM20.4734 32.7332C20.4734 34.089 21.8715 35.8317 23.3031 36.2607C23.6834 36.3747 24.7278 36.4679 25.6243 36.4679H27.2543L27.2503 35.9772C27.2446 35.2677 26.6848 34.1469 26.0068 33.4871C25.0342 32.5412 24.3271 32.2989 22.3024 32.2179L20.4734 32.1447V32.7332Z" fill="#EEF7FF"></path> <defs> <linearGradient id="paint0_linear_532_5479" x1="-26.5" y1="-28.5" x2="80.5" y2="55" gradientUnits="userSpaceOnUse"> <stop stop-color="white"></stop> <stop offset="1" stop-color="white" stop-opacity="0"></stop> </linearGradient> </defs> </svg> 