<?xml version="1.0" encoding="UTF-8"?> <svg xmlns="http://www.w3.org/2000/svg" width="55" height="55" viewBox="0 0 55 55" fill="none"> <rect x="0.410448" y="0.410448" width="54.1791" height="54.1791" rx="6.97761" stroke="url(#paint0_linear_532_5485)" stroke-width="0.820895"></rect> <path fill-rule="evenodd" clip-rule="evenodd" d="M26.2671 9.74027C25.0925 10.6937 24.1317 11.5689 24.1317 11.6852C24.1317 11.8018 24.5472 12.8414 25.0551 13.9954C25.563 15.1495 25.9785 16.1756 25.9785 16.2756C25.9785 16.3755 25.5992 16.5738 25.1354 16.716C24.3877 16.9455 24.1818 16.91 23.3149 16.4021C22.2777 15.7942 19.7373 15.1603 18.3116 15.1536C17.4994 15.1499 17.441 15.2002 17.1935 16.119C17.0502 16.6521 16.9682 17.9814 17.0116 19.0728C17.0749 20.6632 17.2109 21.2893 17.6961 22.2236C18.2522 23.295 18.2836 23.5004 18.0814 24.7526C17.6405 27.4818 18.2982 29.8118 20.1753 32.1723C23.1974 35.9731 29.8793 36.8571 34.6714 34.09C37.7427 32.3168 39.6554 28.0603 38.939 24.5928C38.695 23.4109 38.6998 23.1198 38.9699 22.8016C39.6662 21.9807 39.9453 20.7819 39.9453 18.6125C39.9453 15.5375 39.8086 15.1488 38.7289 15.1536C37.2992 15.1603 34.7596 15.7933 33.721 16.4021C32.8541 16.91 32.6482 16.9455 31.9004 16.716C31.4367 16.5738 31.0574 16.3335 31.0574 16.1821C31.0574 16.0306 31.4729 15.0075 31.9808 13.9081C32.4887 12.8088 32.9042 11.8187 32.9042 11.7079C32.9042 11.5347 28.6537 7.98115 28.4695 8.00008C28.4325 8.00377 27.4417 8.78683 26.2671 9.74027ZM29.9608 10.4375C30.6908 11.0183 31.2882 11.621 31.2882 11.7769C31.2882 12.1123 28.8975 14.2263 28.5179 14.2263C28.1384 14.2263 25.7477 12.1123 25.7477 11.7769C25.7477 11.5252 28.2268 9.38175 28.5179 9.38175C28.5814 9.38175 29.2308 9.85685 29.9608 10.4375ZM28.5179 15.6114C28.6442 15.6114 29.1634 15.2358 29.6715 14.7766C30.1799 14.3174 30.5956 14.0665 30.5956 14.2191C30.5956 14.6206 28.6883 18.8434 28.5071 18.8434C28.3125 18.8434 26.4322 14.678 26.4368 14.2572C26.4389 14.075 26.8313 14.2951 27.3644 14.7766C27.8725 15.2358 28.3917 15.6114 28.5179 15.6114ZM20.8655 16.5491C21.4942 16.684 22.4993 17.1055 23.0993 17.4859C24.1693 18.1644 24.2072 18.1707 25.089 17.8179C25.5833 17.6201 26.1247 17.4582 26.2916 17.4582C26.4587 17.4582 26.9994 18.2893 27.4934 19.3051C27.9872 20.3209 28.4605 21.1519 28.5447 21.1519C28.6906 21.1519 29.3677 19.831 30.0538 18.2085C30.4121 17.3611 30.6714 17.3075 31.9468 17.8179C32.8287 18.1707 32.8666 18.1644 33.9366 17.4859C35.0537 16.7774 36.7149 16.304 38.0832 16.304C38.8418 16.304 38.8557 16.3224 39.0092 17.5527C39.1902 19.0008 38.8072 21.4735 38.2741 22.2991C37.9904 22.7386 37.9018 23.5316 37.8868 25.7619C37.869 28.4417 37.8201 28.7515 37.2219 29.9697C35.7255 33.017 31.5742 35.0488 27.5869 34.6852C23.881 34.3474 20.8801 32.4558 19.7066 29.7188C18.9891 28.0446 18.7137 25.5601 19.099 24.235C19.4074 23.1735 19.3975 23.074 18.91 22.3554C18.09 21.1475 17.6458 18.3092 18.044 16.8234C18.2054 16.2213 18.9845 16.1456 20.8655 16.5491ZM20.6688 19.0742C20.6688 19.3282 20.7905 19.5359 20.9392 19.5359C21.0878 19.5359 21.3977 19.7061 21.6276 19.9141C21.9681 20.2223 22.1101 20.2384 22.3959 20.0013C22.9098 19.5747 22.835 19.3995 21.9614 18.9851C20.9327 18.4969 20.6688 18.5151 20.6688 19.0742ZM34.9242 18.9754C34.2132 19.3612 34.1416 19.5877 34.6079 19.9746C35.0267 20.3222 36.3636 19.5937 36.3657 19.0165C36.3673 18.5232 35.7881 18.5068 34.9242 18.9754ZM32.0637 23.1999C31.665 23.4496 31.2693 23.7661 31.1843 23.9035C31.0897 24.0568 30.0912 24.1531 28.5953 24.1531C26.3352 24.1531 26.1115 24.1117 25.4748 23.5759C24.5331 22.7836 22.8137 22.7647 21.9159 23.5369C21.4124 23.9698 21.2698 24.3239 21.1846 25.351C21.0885 26.5099 21.1409 26.6966 21.7532 27.382C22.3031 27.9975 22.6429 28.1577 23.5931 28.2489C24.6308 28.3486 24.8393 28.2886 25.4981 27.6999C26.0372 27.2181 26.2738 26.7719 26.3698 26.0551L26.5016 25.0716L28.412 25.0984L30.3223 25.1252L30.5721 26.1172C31.0417 27.9823 32.8474 28.8272 34.5177 27.9636C35.4741 27.4688 35.9053 26.734 35.9053 25.5989C35.9053 24.8015 35.7587 24.4493 35.1551 23.7955C34.2035 22.7649 33.0984 22.5518 32.0637 23.1999ZM25.0383 24.5305C25.3014 24.865 25.5168 25.3891 25.5168 25.6952C25.5168 26.4845 24.5382 27.385 23.6804 27.385C23.0136 27.385 22.054 26.7151 22.054 26.2497C22.054 26.1331 21.9965 25.8879 21.9263 25.7049C21.8559 25.5218 22.0729 25.0458 22.4086 24.6471C23.2126 23.6914 24.339 23.6415 25.0383 24.5305ZM34.4424 24.2632C35.114 24.7334 35.2952 25.6328 34.8799 26.4355C34.3018 27.5533 32.9991 27.7318 32.0858 26.8183C31.3933 26.126 31.3628 25.3374 31.9976 24.5305C32.5482 23.8303 33.6522 23.7096 34.4424 24.2632ZM23.4631 24.3689C23.0702 24.612 23.2934 25.3073 23.7646 25.3073C24.2714 25.3073 24.4609 24.8449 24.1012 24.4855C23.9029 24.2872 23.6656 24.2438 23.4631 24.3689ZM32.9012 24.503C32.59 24.878 32.7837 25.3073 33.2641 25.3073C33.4472 25.3073 33.5968 25.2639 33.5968 25.2108C33.5968 25.1577 33.6547 24.9634 33.7254 24.7789C33.9001 24.3234 33.235 24.1009 32.9012 24.503ZM27.0559 28.0007C26.7055 28.3512 26.9359 28.7702 27.4791 28.7702C27.9408 28.7702 28.0562 28.8856 28.0562 29.3473C28.0562 29.7705 28.1793 29.9245 28.5179 29.9245C28.8201 29.9245 28.9797 29.7705 28.9797 29.4789C28.9797 29.1924 29.1653 29.0068 29.4991 28.9595C29.8329 28.9119 30.0448 28.7 30.0924 28.3662C30.1621 27.874 30.0887 27.8468 28.6879 27.8468C27.875 27.8468 27.1404 27.916 27.0559 28.0007ZM25.9785 37.7609C25.9785 39.0938 25.9481 39.1619 24.9168 40.1271C23.9516 41.0307 23.7637 41.1138 22.8486 41.0432C21.4875 40.9381 20.6688 41.7046 20.6688 43.0837C20.6688 44.9282 22.6496 45.818 24.0585 44.606C24.6056 44.1353 24.7042 43.8737 24.7063 42.8836C24.7086 41.8025 24.7899 41.6339 25.8054 40.6027C26.8941 39.4971 26.902 39.4782 26.902 37.9389C26.902 36.5424 26.856 36.3884 26.4402 36.3884C26.0302 36.3884 25.9785 36.5424 25.9785 37.7609ZM30.2879 36.5424C30.2032 36.6269 30.1339 37.3245 30.1339 38.0926C30.1339 39.4484 30.1658 39.5216 31.2305 40.6027C32.246 41.6339 32.3273 41.8025 32.3296 42.8836C32.3317 43.8737 32.4303 44.1353 32.9774 44.606C34.3725 45.806 36.367 44.9285 36.367 43.1149C36.367 42.3699 36.2304 42.0857 35.6281 41.579C35.0311 41.0766 34.7252 40.9792 34.0363 41.0716C33.262 41.1755 33.0854 41.0866 32.1205 40.1066C31.1068 39.0777 31.0574 38.9662 31.0574 37.708C31.0574 36.7622 30.9701 36.3884 30.7496 36.3884C30.5802 36.3884 30.3724 36.4577 30.2879 36.5424ZM28.0562 39.1755C28.0562 39.7672 28.8204 39.7001 28.9363 39.0984C28.9896 38.8214 28.8652 38.697 28.5348 38.697C28.2044 38.697 28.0562 38.8452 28.0562 39.1755ZM28.1943 40.7137C27.863 41.0448 28.0777 41.6981 28.5179 41.6981C28.8171 41.6981 28.9797 41.5441 28.9797 41.2611C28.9797 40.8227 28.4526 40.4552 28.1943 40.7137ZM23.3073 42.2916C24.2836 43.2682 23.0737 44.8142 22.0549 43.8922C21.4491 43.3439 21.4683 42.7347 22.1055 42.2884C22.7445 41.8408 22.8564 41.841 23.3073 42.2916ZM34.9304 42.2884C35.5676 42.7347 35.5868 43.3439 34.981 43.8922C34.5987 44.238 34.4182 44.2652 33.9421 44.0482C33.2403 43.7285 33.1318 42.55 33.7699 42.1783C34.3034 41.8676 34.3339 41.8703 34.9304 42.2884ZM28.0562 43.3141C28.0562 43.6218 28.2102 43.7758 28.5179 43.7758C28.8257 43.7758 28.9797 43.6218 28.9797 43.3141C28.9797 43.0064 28.8257 42.8524 28.5179 42.8524C28.2102 42.8524 28.0562 43.0064 28.0562 43.3141ZM27.115 45.374C26.205 46.2843 26.1944 47.3786 27.0878 48.2343C28.4932 49.5809 30.5956 48.6367 30.5956 46.659C30.5956 45.7866 29.443 44.6992 28.5179 44.6992C28.0211 44.6992 27.5756 44.9135 27.115 45.374ZM29.4497 46.3307C29.6482 46.7019 29.6233 46.9328 29.337 47.3695C28.8899 48.052 28.2712 48.0896 27.709 47.4686C27.3632 47.0863 27.336 46.9058 27.553 46.4297C27.8944 45.6806 29.0688 45.6192 29.4497 46.3307Z" fill="white"></path> <defs> <linearGradient id="paint0_linear_532_5485" x1="-26.5" y1="-28.5" x2="80.5" y2="55" gradientUnits="userSpaceOnUse"> <stop stop-color="white"></stop> <stop offset="1" stop-color="white" stop-opacity="0"></stop> </linearGradient> </defs> </svg> 