<?xml version="1.0" encoding="UTF-8"?> <svg xmlns="http://www.w3.org/2000/svg" width="55" height="55" viewBox="0 0 55 55" fill="none"> <rect x="0.410448" y="0.410448" width="54.1791" height="54.1791" rx="6.97761" stroke="url(#paint0_linear_532_5481)" stroke-width="0.820895"></rect> <path fill-rule="evenodd" clip-rule="evenodd" d="M24.8869 16.3572C28.8705 17.3123 32.2029 19.9627 33.9882 23.5962C35.0338 25.7247 35.346 26.881 35.4703 29.0891C35.9712 37.9794 27.7012 45.0273 18.9103 43.2016C12.4889 41.868 7.99898 36.3386 8 29.7652C8.00085 24.2626 10.9122 19.6696 15.8979 17.3058C18.6499 16.0009 21.9489 15.6529 24.8869 16.3572ZM18.7004 17.4887C16.819 17.9418 14.7006 19.1162 13.1739 20.5524C8.90868 24.5648 7.91342 30.4695 10.6198 35.7059C11.1675 36.7655 11.701 37.4633 12.8025 38.56C14.4521 40.2025 15.8608 41.095 17.8466 41.7555C19.0555 42.1577 19.4881 42.2113 21.6036 42.2209C24.2265 42.2326 25.5226 41.9524 27.4893 40.9484C30.2944 39.5163 32.7354 36.6281 33.7652 33.5222C34.1619 32.3259 34.2196 31.8695 34.2295 29.8506C34.2391 27.8906 34.1808 27.3532 33.8408 26.2644C32.4683 21.8685 29.1333 18.6508 24.8015 17.543C23.2416 17.1441 20.2422 17.1173 18.7004 17.4887ZM33.0267 17.721C39.0963 19.2733 43.1771 25.5388 42.1154 31.6751C41.7923 33.5425 41.3833 34.6467 40.4207 36.2508C39.0048 38.6099 36.456 40.6547 33.863 41.5116C32.3035 42.027 31.0781 42.2605 31.0888 42.04C31.0991 41.8291 32.7106 40.6093 32.9789 40.6093C33.1007 40.6093 33.9212 40.2587 34.8023 39.83C37.5346 38.5007 39.5446 36.1716 40.5998 33.1117C40.9842 31.997 41.0478 31.5262 41.0508 29.7652C41.0541 27.947 40.9989 27.5542 40.5623 26.2813C39.4145 22.9355 36.7412 20.1873 33.5747 19.0979C32.6676 18.7857 31.2522 17.828 31.2522 17.5264C31.2522 17.3143 31.575 17.3497 33.0267 17.721ZM22.2537 18.0868C22.5068 18.4908 22.2732 18.9211 21.8007 18.9211C21.2152 18.9211 20.929 18.5299 21.1763 18.0678C21.4 17.6497 21.9865 17.6602 22.2537 18.0868ZM16.4804 19.8604C16.4804 20.3153 16.4232 20.3727 15.9705 20.3727C15.6153 20.3727 15.4424 20.2795 15.4013 20.0657C15.3191 19.6386 15.6974 19.2362 16.1238 19.2972C16.3948 19.3358 16.4804 19.471 16.4804 19.8604ZM27.9222 19.8604C27.9222 20.3153 27.865 20.3727 27.4122 20.3727C27.056 20.3727 26.8842 20.2796 26.8427 20.064C26.736 19.51 26.9524 19.2366 27.4515 19.2939C27.8486 19.3395 27.9222 19.4282 27.9222 19.8604ZM41.6359 19.9822C43.0157 20.4948 45.0189 21.9192 45.8793 22.9995C47.4905 25.0227 48.3295 27.3455 48.3295 29.783C48.3295 33.2486 46.478 36.6052 43.489 38.5581C42.3755 39.2858 40.5331 39.9875 39.9765 39.896C39.4027 39.8017 40.581 38.7378 42.1136 37.9664C45.2226 36.4016 47.1268 33.2992 47.1321 29.7898C47.1375 26.2094 45.1533 22.9804 42.0092 21.4525C40.9202 20.9233 39.6201 19.8662 39.6201 19.5098C39.6201 19.3636 40.5703 19.5863 41.6359 19.9822ZM24.2743 19.9301C27.9365 20.8666 30.6342 23.6223 31.6049 27.4181C32.9851 32.8142 29.377 38.4907 23.8187 39.6681C18.8306 40.7247 13.7617 37.8796 12.1086 33.0953C11.5884 31.5897 11.4672 28.814 11.8545 27.2774C12.7512 23.72 15.7503 20.7206 19.2619 19.8691C20.6911 19.5228 22.7809 19.5481 24.2743 19.9301ZM19.3173 21.0696C16.9697 21.701 14.813 23.4946 13.6802 25.758C11.1118 30.8894 13.9468 37.0312 19.5475 38.4695C23.9614 39.6029 28.5124 37.1788 30.1572 32.8181C32.0002 27.9325 29.092 22.3907 23.9872 21.0611C22.7433 20.7371 20.5386 20.7411 19.3173 21.0696ZM19.713 23.288C19.8673 23.4425 19.9812 23.8462 19.9812 24.2392C19.9812 24.8495 20.0221 24.9161 20.3655 24.8675C20.679 24.8229 20.76 24.6875 20.8052 24.1319C20.8594 23.4663 21.0805 23.0197 21.3561 23.0197C21.7011 23.0197 22.0305 23.6097 22.0305 24.2272V24.8982L22.7563 24.9009C24.9005 24.9093 26.2288 27.192 25.151 29.0164C24.8768 29.4805 24.8816 29.5043 25.3146 29.845C25.56 30.0379 25.8912 30.5374 26.0507 30.9552C26.7918 32.8958 25.3519 34.6322 23.0012 34.6322H22.0305V35.2945C22.0305 36.0104 21.7199 36.4033 21.2275 36.3099C21.0028 36.2672 20.8976 36.0459 20.8351 35.4846C20.7646 34.8507 20.6831 34.7082 20.3655 34.663C20.025 34.6146 19.9809 34.6826 19.9787 35.2607C19.9753 36.0997 19.786 36.3839 19.2789 36.3121C18.9235 36.2619 18.8646 36.1506 18.8191 35.4434L18.767 34.6322H18.0139C17.4278 34.6322 17.219 34.554 17.0723 34.2798C16.788 33.7485 17.145 33.4368 18.0382 33.4368H18.7858V29.7652V26.0936H18.1354C16.6204 26.0936 16.4893 25.03 17.9921 24.9315L18.7858 24.8794V24.1545C18.7858 23.1368 19.187 22.762 19.713 23.288ZM12.137 23.538C12.5367 23.752 12.5665 24.2617 12.1967 24.5686C11.6644 25.0104 10.9972 24.154 11.4494 23.6092C11.6947 23.3136 11.714 23.3115 12.137 23.538ZM31.9466 23.538C32.3189 23.7373 32.3797 24.2148 32.0719 24.5225C31.7642 24.8302 31.2867 24.7694 31.0874 24.3971C30.8588 23.9699 30.8615 23.9472 31.179 23.6295C31.4966 23.3121 31.5193 23.3093 31.9466 23.538ZM19.9812 27.6306V29.1675H21.5267C23.2599 29.1675 23.991 28.911 24.2579 28.209C24.5272 27.5008 24.4476 27.1184 23.9222 26.5928C23.4365 26.1071 23.3764 26.0936 21.7021 26.0936H19.9812V27.6306ZM10.8775 29.4469C11.0328 29.8515 10.7011 30.2775 10.231 30.2775C9.81275 30.2775 9.61858 29.8877 9.80046 29.4138C9.93024 29.0755 10.7445 29.1004 10.8775 29.4469ZM33.634 29.4127C33.7851 29.5948 33.7889 29.7488 33.6489 30.0104C33.2853 30.6898 32.2967 30.2538 32.5305 29.5173C32.6609 29.106 33.3271 29.043 33.634 29.4127ZM19.9812 31.8999V33.4368H22.0437C24.0955 33.4368 24.1086 33.4343 24.6053 32.9377C24.9459 32.597 25.1044 32.2674 25.1044 31.8999C25.1044 31.5324 24.9459 31.2028 24.6053 30.8621C24.1086 30.3655 24.0955 30.3629 22.0437 30.3629H19.9812V31.8999ZM12.2686 34.9529C12.3943 35.0327 12.4712 35.2812 12.4394 35.5054C12.3935 35.8312 12.2794 35.913 11.8719 35.913C11.5157 35.913 11.3439 35.82 11.3024 35.6043C11.1697 34.9154 11.6737 34.5759 12.2686 34.9529ZM32.1585 35.164C32.4345 35.6046 32.1759 35.9984 31.6107 35.9984C31.2505 35.9984 31.0724 35.8975 30.9935 35.6487C30.7633 34.9232 31.7504 34.5127 32.1585 35.164ZM16.4683 39.1698C16.6158 39.3176 16.7366 39.5042 16.7366 39.5846C16.7366 39.8039 16.2297 40.2677 15.9901 40.2677C15.4018 40.2677 15.1612 39.3819 15.6692 39.086C16.0741 38.8501 16.1571 38.8589 16.4683 39.1698ZM27.8026 39.1065C28.0878 39.3917 28.0583 39.8422 27.7371 40.1089C27.2048 40.5507 26.5375 39.6943 26.9898 39.1495C27.2399 38.8479 27.5289 38.8327 27.8026 39.1065ZM22.0418 40.6153C22.4141 40.8145 22.4749 41.292 22.1671 41.5998C21.8594 41.9075 21.3819 41.8467 21.1826 41.4744C20.954 41.0471 20.9567 41.0244 21.2742 40.7068C21.5918 40.3893 21.6145 40.3866 22.0418 40.6153Z" fill="white"></path> <defs> <linearGradient id="paint0_linear_532_5481" x1="-26.5" y1="-28.5" x2="80.5" y2="55" gradientUnits="userSpaceOnUse"> <stop stop-color="white"></stop> <stop offset="1" stop-color="white" stop-opacity="0"></stop> </linearGradient> </defs> </svg> 