<?xml version="1.0" encoding="UTF-8"?> <svg xmlns="http://www.w3.org/2000/svg" width="55" height="55" viewBox="0 0 55 55" fill="none"> <rect x="0.410448" y="0.410448" width="54.1791" height="54.1791" rx="6.97761" stroke="url(#paint0_linear_532_5474)" stroke-width="0.820895"></rect> <path fill-rule="evenodd" clip-rule="evenodd" d="M29.3214 12.4089C30.348 12.9354 30.9125 13.8725 30.9125 15.05V15.8657L33.8798 17.5724L36.8471 19.2788L37.55 18.8641C38.5118 18.2966 40.1894 18.4172 40.9382 19.1076C41.581 19.7004 42 20.6523 42 21.5201C42 22.3602 41.108 23.7542 40.3769 24.0572L39.8221 24.287V27.7784V31.27L40.4137 31.5317C41.248 31.9012 41.8513 32.8414 41.9434 33.9163C42.1499 36.3249 39.7403 37.8635 37.5775 36.7045L36.8237 36.3003L33.9176 37.9653L31.0115 39.63L30.905 40.5966C30.7044 42.4177 29.8608 43.2857 28.1873 43.393C26.2928 43.5146 25.1894 42.5396 25.0595 40.6292C25.0205 40.0568 24.9124 39.563 24.8189 39.532C24.7255 39.5009 23.4168 38.7556 21.9108 37.8758L19.1726 36.2764L18.4323 36.6924C16.3607 37.8566 13.9874 36.4631 14.0231 34.1034C14.0395 33.0115 14.6913 31.9703 15.6775 31.4603L16.2611 31.1585V27.6986C16.2611 24.8319 16.2126 24.2389 15.9782 24.2389C15.4644 24.2389 14.3272 22.9668 14.1056 22.1442C13.7643 20.876 14.2703 19.5315 15.3334 18.8833C16.2112 18.3479 17.8158 18.3604 18.5117 18.9078L19.0336 19.3184L21.5578 17.8848C24.8157 16.0342 25.1783 15.7776 25.0411 15.4198C24.6667 14.4439 25.8421 12.5216 27.0224 12.1797C28.0072 11.8946 28.3933 11.933 29.3214 12.4089ZM27.0984 13.7949C25.8859 14.7157 26.609 16.5024 28.199 16.5145C28.7506 16.5189 29.5266 15.6216 29.5266 14.9797C29.5266 13.8307 28.0196 13.0954 27.0984 13.7949ZM22.7454 18.8286L19.825 20.5347V21.3785V22.2222L22.8127 23.9522L25.8004 25.6823L26.525 25.2685L27.2497 24.8545L27.3037 21.3835L27.3578 17.9123L26.6107 17.5718C26.1999 17.3845 25.8192 17.2067 25.7647 17.1768C25.7103 17.1469 24.3515 17.8901 22.7454 18.8286ZM29.3735 17.5444L28.7257 17.945L28.7795 21.3997L28.8336 24.8545L29.5272 25.2507L30.2207 25.6468L33.19 23.9502L36.1593 22.2535L36.0892 21.4148C36.0506 20.9535 35.9888 20.526 35.9518 20.4646C35.8708 20.3302 30.2148 17.1043 30.1011 17.1277C30.0574 17.1366 29.7299 17.3243 29.3735 17.5444ZM15.8652 20.2791C15.6201 20.5242 15.4692 20.939 15.4692 21.368C15.4692 22.2721 16.0443 22.853 16.9397 22.853C17.7071 22.853 18.4391 22.1279 18.4391 21.368C18.4391 21.1251 18.2543 20.6917 18.0286 20.4048C17.5144 19.7511 16.4548 19.6895 15.8652 20.2791ZM38.2835 20.0156C37.8564 20.1874 37.4286 21.2287 37.5636 21.767C37.8485 22.9021 39.4804 23.2509 40.2036 22.3313C40.7481 21.6393 40.722 20.963 40.128 20.3692C39.6681 19.9091 38.9098 19.7637 38.2835 20.0156ZM18.3902 23.9277L17.6481 24.3379L17.6499 27.8028L17.6516 31.2676L18.425 31.638L19.1983 32.0083L20.353 31.3587C20.9882 31.0015 22.3155 30.2323 23.3027 29.6494L25.0975 28.5898L25.0579 27.7507L25.0183 26.9118L22.8671 25.6583C21.6839 24.9689 20.3596 24.2051 19.924 23.9611L19.132 23.5172L18.3902 23.9277ZM33.7248 25.2768L30.8945 26.9011L30.9529 27.7802L31.0115 28.6591L32.915 29.7878C33.9618 30.4085 35.279 31.1672 35.8419 31.4737L36.8655 32.0309L37.6014 31.6105L38.3372 31.1902L38.3855 27.7642L38.4336 24.3379L37.7339 23.9914C37.3488 23.801 36.9263 23.6467 36.7946 23.6487C36.6629 23.6509 35.2816 24.3835 33.7248 25.2768ZM27.0509 26.6643C25.7481 27.7849 26.9028 29.7286 28.5334 29.1602C29.6161 28.7828 29.8732 27.5375 29.0405 26.7049C28.435 26.0993 27.7244 26.0848 27.0509 26.6643ZM22.6959 31.6353L19.924 33.2543L19.866 34.1419L19.8082 35.0294L22.8004 36.7377L25.7928 38.446L26.5692 38.0246L27.3455 37.6033L27.3471 34.2076L27.3487 30.8118L26.6444 30.3962C26.2569 30.1676 25.8338 29.9886 25.7039 29.9985C25.5741 30.0082 24.2204 30.7447 22.6959 31.6353ZM29.3781 30.3262L28.7346 30.6465L28.7358 34.1248L28.7372 37.6033L29.3458 37.9498C29.6806 38.1403 30.073 38.2963 30.2179 38.2963C30.5735 38.2963 36.1238 35.0661 36.0884 34.8798C36.0729 34.7988 36.0589 34.3984 36.0573 33.99L36.0541 33.2475L33.2167 31.6141C31.6561 30.7156 30.2987 29.9864 30.2003 29.9933C30.1019 30.0003 29.7319 30.1501 29.3781 30.3262ZM16.3235 32.7539C15.3504 33.1462 15.1542 34.6539 15.9909 35.312C16.6829 35.8565 17.3592 35.8303 17.953 35.2363C18.7335 34.4561 18.5836 33.3358 17.6328 32.8442C16.9998 32.5169 16.9248 32.5118 16.3235 32.7539ZM38.5282 32.743C37.4509 33.1796 37.2354 34.5002 38.1172 35.2587C38.811 35.8555 39.517 35.8475 40.128 35.2363C40.8831 34.4814 40.6588 33.2148 39.692 32.7743C39.1392 32.5225 39.0763 32.5209 38.5282 32.743ZM26.9527 39.4842C26.0678 40.3691 26.7 42.0581 27.9159 42.0581C28.7708 42.0581 29.5266 41.3707 29.5266 40.5934C29.5266 39.3027 27.8545 38.5824 26.9527 39.4842Z" fill="#F3FAFF"></path> <defs> <linearGradient id="paint0_linear_532_5474" x1="-26.5" y1="-28.5" x2="80.5" y2="55" gradientUnits="userSpaceOnUse"> <stop stop-color="white"></stop> <stop offset="1" stop-color="white" stop-opacity="0"></stop> </linearGradient> </defs> </svg> 