<?xml version="1.0" encoding="UTF-8"?> <svg xmlns="http://www.w3.org/2000/svg" width="55" height="55" viewBox="0 0 55 55" fill="none"> <rect x="0.410448" y="0.410448" width="54.1791" height="54.1791" rx="6.97761" stroke="url(#paint0_linear_532_5477)" stroke-width="0.820895"></rect> <path fill-rule="evenodd" clip-rule="evenodd" d="M33.5256 16.0878C33.733 16.1673 33.7635 16.6202 33.7635 19.6099C33.7635 21.4968 33.7224 23.1478 33.6722 23.2786C33.5541 23.5863 33.0705 23.5863 32.9524 23.2786C32.9022 23.1478 32.8611 21.6926 32.8611 20.045V17.0493H30.6803H28.4994V27.7278V38.4064H30.4259C32.5434 38.4064 33.0995 38.5737 32.7695 39.1119C32.6114 39.3698 32.0261 39.3859 21.5059 39.4225C10.5599 39.4605 10 39.4401 10 39.0003C10 38.6965 10.5196 38.4064 11.0635 38.4064H11.6544V34.8268C11.6544 32.2432 11.7047 31.197 11.8349 31.0667C11.9603 30.9413 12.7564 30.8863 14.4475 30.8863H16.8797L16.9875 29.3651C17.0469 28.5286 17.0757 26.3786 17.0516 24.5873C17.0275 22.7961 17.0495 21.2631 17.1005 21.1807C17.1572 21.0889 18.3523 21.0315 20.1766 21.0327L23.1602 21.0349L23.2014 23.628L23.2424 26.2211L25.3822 26.151L27.5218 26.0809L27.5615 21.159C27.5915 17.4511 27.6471 16.2081 27.7871 16.1192C28.0043 15.9813 33.1742 15.953 33.5256 16.0878ZM18.168 21.9784C18.0017 22.0862 17.9209 27.7053 17.9615 36.3383L17.9713 38.4064H20.0769H22.1826L22.1896 36.7895C22.1937 35.9004 22.2105 32.1948 22.2272 28.555L22.2578 21.9373L20.3025 21.8996C19.2272 21.879 18.2665 21.9143 18.168 21.9784ZM40.719 23.8366C43.2703 24.7049 44.4845 25.7166 45.5707 27.8796C46.4182 29.5668 46.6536 30.8718 46.4081 32.5217C46.3149 33.1489 46.1727 33.7278 46.0923 33.8083C46.0118 33.8887 45.9461 34.0742 45.9461 34.2207C45.9461 34.8928 44.5747 36.8001 43.5034 37.6178C41.9219 38.8251 40.5126 39.3088 38.5764 39.3088C36.6324 39.3088 35.2316 38.8258 33.6312 37.6038C32.8617 37.0163 31.3571 35.1062 31.3571 34.717C31.3571 34.6164 31.2103 34.2041 31.031 33.8006C30.7645 33.2009 30.7045 32.7788 30.7028 31.4879C30.7009 30.1356 30.76 29.7467 31.1139 28.7818C31.7374 27.082 33.1995 25.36 34.7695 24.4761C36.4399 23.5358 39.0201 23.2585 40.719 23.8366ZM36.6963 24.6883C35.4088 25.1493 34.593 25.6238 33.6609 26.4542C32.8903 27.1406 32.6902 27.4344 32.2632 28.5067C31.0964 31.4363 31.6027 34.2575 33.665 36.32C36.8045 39.4595 41.8643 38.9192 44.4445 35.1693C45.6686 33.39 45.8367 30.1627 44.8098 28.1584C44.3601 27.2808 42.5022 25.5688 41.434 25.0478C40.5933 24.6378 40.2458 24.5603 38.9524 24.4951C37.7462 24.434 37.2995 24.4724 36.6963 24.6883ZM37.6439 26.5547C37.7431 26.6539 37.8244 26.9624 37.8244 27.2401C37.8244 27.741 37.8295 27.7448 38.4622 27.6988C38.9659 27.6624 39.1095 27.5893 39.1449 27.3518C39.2763 26.4685 39.3395 26.3548 39.672 26.402C39.9441 26.4407 40.0135 26.561 40.05 27.0582C40.0884 27.5809 40.1699 27.7077 40.6256 27.953C41.2854 28.3084 41.5844 28.8665 41.5844 29.7424C41.5844 30.2386 41.4886 30.5297 41.224 30.8372L40.8637 31.2561L41.224 31.6843C41.8932 32.4796 41.6113 33.9845 40.6834 34.5702C40.1964 34.8778 40.0912 35.0336 40.0521 35.5071C40.0114 36.0002 39.9556 36.0751 39.6292 36.0751C39.3036 36.0751 39.2431 35.9948 39.178 35.475C39.0977 34.8343 38.8692 34.6907 38.1984 34.859C37.9521 34.9208 37.8298 35.0736 37.7967 35.361C37.7589 35.6889 37.6714 35.7743 37.3732 35.7743C37.0749 35.7743 36.9874 35.6889 36.9496 35.361C36.9028 34.9555 36.7959 34.8918 35.9443 34.7629C35.7363 34.7314 35.6435 34.6019 35.6435 34.3434C35.6435 34.0017 35.6986 33.9705 36.2827 33.9824L36.9219 33.9955L36.9314 32.8168C36.9365 32.1686 36.9454 30.9783 36.951 30.1718L36.9612 28.7054L36.4267 28.6594C35.2985 28.5624 35.3695 27.7278 36.5059 27.7278H37.1059L37.0066 27.1988C36.8631 26.4339 37.1913 26.1021 37.6439 26.5547ZM23.2354 32.6911V38.4064H25.4162H27.597V32.6911V26.9758H25.4162H23.2354V32.6911ZM37.9247 28.7305C37.8695 28.7856 37.8244 29.2255 37.8244 29.7082V30.5855H39.019C40.0831 30.5855 40.2394 30.5489 40.4478 30.2511C41.0771 29.3529 40.4125 28.6302 38.9572 28.6302C38.4445 28.6302 37.9797 28.6753 37.9247 28.7305ZM12.7072 35.0895V38.4064H14.8129H16.9185L16.9316 36.6015C16.9388 35.6089 16.9505 34.2002 16.9577 33.4711C16.965 32.7419 16.9272 32.0749 16.8738 31.9885C16.8158 31.8947 15.96 31.8198 14.742 31.8022L12.7072 31.7729V35.0895ZM37.8244 32.8326C37.8244 33.3485 37.8982 33.7717 37.999 33.834C38.0949 33.8934 38.5857 33.9271 39.0894 33.9089C40.115 33.8719 40.682 33.5094 40.682 32.8905C40.682 32.2062 40.1965 31.9391 38.9524 31.9391H37.8244V32.8326Z" fill="white"></path> <defs> <linearGradient id="paint0_linear_532_5477" x1="-26.5" y1="-28.5" x2="80.5" y2="55" gradientUnits="userSpaceOnUse"> <stop stop-color="white"></stop> <stop offset="1" stop-color="white" stop-opacity="0"></stop> </linearGradient> </defs> </svg> 