<?xml version="1.0" encoding="UTF-8"?> <svg xmlns="http://www.w3.org/2000/svg" width="55" height="55" viewBox="0 0 55 55" fill="none"> <rect x="0.410448" y="0.410448" width="54.1791" height="54.1791" rx="6.97761" stroke="url(#paint0_linear_532_5483)" stroke-width="0.820895"></rect> <path fill-rule="evenodd" clip-rule="evenodd" d="M22.9066 12.5623V16.3303L23.563 16.263L24.2195 16.1958L24.2603 13.1924L24.301 10.1889L30.7046 10.132L37.1084 10.0752L38.8032 11.7245L40.4983 13.3741V23.3125V33.2512H38.2457H35.9931V34.0021V34.7529H38.9965H42V23.8613V12.9697L39.9044 10.8821L37.8089 8.79443H30.3577H22.9066V12.5623ZM35.9931 12.8706V14.8014H37.8166H39.6401V14.0616V13.3222L38.5138 13.2572L37.3875 13.1924L37.3227 12.0661C37.2599 10.9767 37.2372 10.9398 36.6255 10.9398H35.9931V12.8706ZM9.06446 12.6991C9.00589 12.8523 8.98294 18.722 9.01362 25.7425L9.06918 38.5073H12.0726H15.0761V37.8637V37.2201L12.7699 37.1591L10.4636 37.0982V25.5207V13.9432H16.2696H22.0757L22.0083 13.246L21.9412 12.5488L15.5562 12.4846C10.4701 12.4333 9.14942 12.4769 9.06446 12.6991ZM16.0415 30.1405V43.1197H25.5882H35.1349V32.3356V21.5514L32.9323 19.3563L30.7297 17.1612H23.3856H16.0415V30.1405ZM31.9659 20.3206L33.6332 21.9781V31.908V41.8377L25.5346 41.7815L17.436 41.7253L17.3804 30.1941L17.3251 18.663H23.8117H30.2985L31.9659 20.3206ZM29.128 21.3446V23.1681H30.9515H32.7751V22.5357C32.7751 21.9241 32.7382 21.9013 31.6488 21.8385L30.5225 21.7737L30.4577 20.6474C30.3948 19.558 30.3721 19.5211 29.7605 19.5211H29.128V21.3446ZM19.9031 26.2789V27.0448L22.1021 26.9836L24.301 26.9225V26.2789V25.6353L22.1021 25.5741L19.9031 25.513V26.2789ZM26.7682 26.2789V27.0297H29.0208H31.2733V26.2789V25.528H29.0208H26.7682V26.2789ZM19.9031 29.3896C19.9031 30.0982 19.6727 30.0354 22.5848 30.1201C24.2577 30.1688 24.4083 30.1066 24.4083 29.3667V28.746H22.1557H19.9031V29.3896ZM26.7682 29.3896C26.7682 30.0105 26.8042 30.0343 27.7872 30.0611C28.3475 30.0763 29.2406 30.1036 29.7716 30.1214C31.1011 30.166 31.2733 30.0793 31.2733 29.3667V28.746H29.0208H26.7682V29.3896ZM19.9031 32.5003V33.2662L22.1021 33.2051L24.301 33.1439V32.5003V31.8567L22.1021 31.7956L19.9031 31.7345V32.5003ZM26.7682 32.5003V33.2512H29.0208H31.2733V32.5003V31.7495H29.0208H26.7682V32.5003ZM19.9031 35.4963V36.2547H22.1692H24.4355L24.3682 35.5574L24.301 34.8602L22.1021 34.7991L19.9031 34.7379V35.4963ZM26.7682 35.4963V36.2547H29.0343H31.3006L31.2332 35.5574L31.1661 34.8602L28.9671 34.7991L26.7682 34.7379V35.4963ZM19.9031 38.6145V39.2581H22.1557H24.4083V38.6145V37.9709H22.1557H19.9031V38.6145ZM26.7682 38.6145V39.2581H29.0208H31.2733V38.6145V37.9709H29.0208H26.7682V38.6145Z" fill="white"></path> <defs> <linearGradient id="paint0_linear_532_5483" x1="-26.5" y1="-28.5" x2="80.5" y2="55" gradientUnits="userSpaceOnUse"> <stop stop-color="white"></stop> <stop offset="1" stop-color="white" stop-opacity="0"></stop> </linearGradient> </defs> </svg> 