<?xml version="1.0" encoding="UTF-8"?> <svg xmlns="http://www.w3.org/2000/svg" width="55" height="55" viewBox="0 0 55 55" fill="none"> <rect x="0.410448" y="0.410448" width="54.1791" height="54.1791" rx="6.97761" stroke="url(#paint0_linear_532_5484)" stroke-width="0.820895"></rect> <path fill-rule="evenodd" clip-rule="evenodd" d="M33.3868 11.0992C29.7575 11.7328 27.6844 13.5826 28.6062 15.3649C28.8089 15.7571 28.8074 15.8342 28.591 16.1644C28.4125 16.4372 28.3755 16.7082 28.446 17.2321C28.5693 18.1479 28.5704 18.6957 28.4505 19.3565C28.3688 19.8058 28.4023 19.9221 28.6513 20.0555C29.0059 20.2452 29.4122 19.9321 29.4122 19.4694C29.4122 19.0967 29.569 19.1107 30.4616 19.563C31.9789 20.3319 33.2196 20.553 36.0366 20.5564C38.827 20.5598 39.9955 20.3547 41.7435 19.5545C42.1844 19.3525 42.6044 19.224 42.6766 19.2688C42.9769 19.4542 42.7863 20.0759 42.2777 20.5698C41.4423 21.3812 39.965 21.8697 37.3368 22.2038C36.5773 22.3004 36.2741 22.5458 36.4257 22.9409C36.6409 23.5018 40.3902 22.8907 41.9044 22.0479C42.6133 21.6533 42.8082 21.6843 42.8082 22.192C42.8082 23.2444 40.9341 24.2759 38.2899 24.6789C37.388 24.8164 37.1338 24.9095 37.0937 25.1178C37.0011 25.5983 37.353 25.8359 38.0123 25.7386C39.2871 25.5503 40.712 25.1632 41.6105 24.7607C42.6233 24.307 42.8082 24.3195 42.8082 24.8418C42.8082 25.7212 41.2063 26.694 39.124 27.0791C37.2094 27.4331 37.1407 27.4607 37.1407 27.8743C37.1407 28.2234 37.1781 28.2382 38.0239 28.2235C39.144 28.2039 40.5733 27.8408 41.6977 27.2899C42.1799 27.0538 42.627 26.893 42.6914 26.9326C42.9475 27.0909 42.7845 27.7402 42.3706 28.2119C41.7925 28.8702 40.5361 29.4164 38.9072 29.7172C38.1785 29.8518 37.498 29.9868 37.3949 30.0171C37.0918 30.1063 37.0091 30.5257 37.2475 30.7641C37.4436 30.9603 37.6221 30.9584 38.8502 30.7467C39.6259 30.6129 40.743 30.2877 41.3966 30.0052C42.0372 29.7284 42.6169 29.5363 42.6847 29.5784C42.9083 29.7165 42.8137 30.3268 42.5082 30.715C42.0612 31.2834 40.5334 31.9701 39.124 32.2364C37.4127 32.5599 37.184 32.66 37.2411 33.0614C37.2788 33.3264 37.3973 33.4001 37.8451 33.4371C38.592 33.4988 40.6154 32.9775 41.6977 32.4446C42.1799 32.2071 42.627 32.0454 42.6914 32.085C42.9372 32.2369 42.7918 32.873 42.4065 33.3308C42.1855 33.5934 41.6029 33.9904 41.1117 34.2132C40.2754 34.5924 38.3307 35.0841 37.6672 35.0841C37.2586 35.0841 37.0231 35.5565 37.2662 35.889C37.4344 36.1189 37.5617 36.129 38.4893 35.985C42.2723 35.3981 44.4162 33.6597 43.642 31.807C43.4379 31.3183 43.4392 31.2095 43.6563 30.6567C43.8793 30.0891 43.8785 29.9965 43.6442 29.3367C43.4062 28.6668 43.4062 28.5976 43.6447 28.0975C43.8639 27.6379 43.8724 27.4858 43.7096 26.9465C43.6064 26.6048 43.5219 26.2257 43.5219 26.1043C43.5219 25.9828 43.6064 25.6038 43.7096 25.2621C43.8724 24.7227 43.8639 24.5707 43.6447 24.1111C43.4062 23.611 43.4062 23.5418 43.6442 22.8719C43.8785 22.2121 43.8793 22.1195 43.6563 21.5518C43.4401 21.0011 43.4384 20.889 43.6395 20.4076C43.8679 19.8613 43.8097 18.9923 43.5215 18.6436C43.4258 18.5277 43.4644 18.2259 43.637 17.7398C43.8787 17.0589 43.8801 16.9691 43.6563 16.3995C43.4408 15.8507 43.4389 15.7354 43.6375 15.2604C44.3012 13.6716 42.9469 12.2308 39.9811 11.3711C39.1382 11.1269 38.4005 11.0489 36.5518 11.0088C35.2564 10.9809 33.8321 11.0215 33.3868 11.0992ZM39.0833 12.1939C41.1411 12.5877 42.8082 13.6386 42.8082 14.5422C42.8082 15.3496 41.2798 16.2962 39.2016 16.7756C37.4851 17.1718 34.4906 17.1401 32.7403 16.7076C29.2302 15.8401 28.3383 14.1575 30.7606 12.9736C32.976 11.8908 36.0125 11.6064 39.0833 12.1939ZM16.2918 14.3218C14.7263 14.652 13.2804 15.3256 12.5688 16.0564C11.9402 16.7017 11.8282 17.0391 11.9581 17.8959C12.0104 18.2408 12.0476 18.7051 12.0409 18.9278C12.03 19.2794 12.0242 20.1592 12.0242 21.4672C12.0242 21.6696 12.0253 22.2327 12.0263 22.7185C12.0275 23.2043 12.0284 23.8005 12.0284 24.0434C12.0284 24.2863 12.0275 24.8824 12.0263 25.3682C12.0216 27.434 12.0263 28.688 12.0409 29.1589C12.0476 29.3815 12.0097 29.8539 11.9565 30.2083C11.8979 30.5979 11.9336 31.0767 12.0462 31.4181C12.1953 31.8697 12.1957 32.0276 12.049 32.2045C11.9249 32.3539 11.8947 32.6779 11.9561 33.2029C12.0718 34.1942 12.0716 34.5479 11.9548 35.4455C11.8348 36.3674 12.1189 36.9393 13.0179 37.5849C14.3259 38.5241 17.002 39.2744 18.6972 39.1771C19.4133 39.1359 19.4755 39.1035 19.4755 38.7709C19.4755 38.3542 19.1311 38.2133 18.0566 38.1902C17.0721 38.169 14.8405 37.5548 14.037 37.084C13.2559 36.6262 12.7348 35.8972 12.871 35.4525C12.9977 35.0386 12.9817 35.0408 13.5349 35.3671C14.5545 35.9688 16.3437 36.444 18.3077 36.6349C19.1766 36.7194 19.389 36.6953 19.5955 36.4887C19.7753 36.309 19.8046 36.1694 19.7024 35.9787C19.5908 35.7701 19.2927 35.6957 18.2509 35.6171C16.839 35.5105 15.1433 35.0983 14.2574 34.6464C13.6721 34.3479 12.776 33.4272 12.7797 33.1284C12.781 33.03 12.839 32.8594 12.9088 32.7493C13.0113 32.5877 13.2163 32.6342 13.9739 32.9907C15.1747 33.556 16.5767 33.898 18.148 34.0088C19.4932 34.1038 19.8721 33.9737 19.7386 33.463C19.6572 33.1518 19.4055 33.09 17.6784 32.9569C15.6273 32.7986 13.4776 31.889 13.0077 30.9806C12.8089 30.5959 12.8433 29.8652 13.0557 29.9625C13.1071 29.9861 13.5127 30.1855 13.957 30.4057C15.0017 30.9235 16.2007 31.2285 17.8858 31.4053C19.4788 31.5724 19.7293 31.5126 19.6675 30.9802C19.6298 30.6548 19.5418 30.588 19.1075 30.555C16.298 30.3411 14.133 29.6648 13.2975 28.7399C12.7553 28.1398 12.6905 27.9418 12.9185 27.5814C13.0357 27.396 13.1345 27.4092 13.6156 27.6734C14.8077 28.3285 17.2602 28.9013 18.8729 28.9013C19.364 28.9013 19.5761 28.8315 19.6809 28.6357C19.9409 28.1499 19.6385 27.9859 18.2456 27.8574C15.7405 27.6263 13.6265 26.8336 13.0685 25.9162C12.829 25.5222 12.7974 25.0461 12.9952 24.8131C13.0138 24.7912 13.4208 24.9675 13.8995 25.205C14.9907 25.7464 16.1532 26.0504 17.8808 26.246C19.4654 26.4255 19.7296 26.3637 19.6675 25.8278C19.6247 25.4582 19.5727 25.437 18.4451 25.3288C16.9862 25.1888 15.1675 24.7436 14.315 24.3179C13.2528 23.7875 12.6109 22.9212 12.9177 22.4323C13.0292 22.2543 13.2021 22.2933 13.9815 22.6725C15.215 23.2727 16.9652 23.6488 18.5923 23.6634C19.8807 23.675 19.9185 23.6656 19.9668 23.3239C20.0346 22.844 19.7806 22.7233 18.6965 22.7207C15.576 22.7132 12.1538 20.9861 12.9066 19.7987C13.0057 19.6424 13.2082 19.6911 13.8979 20.037C16.896 21.5409 22.404 21.5183 25.3268 19.9901C25.7283 19.7802 26.0741 19.6291 26.0953 19.6545C26.1163 19.6799 26.2113 19.8498 26.3061 20.0319C26.5042 20.4127 27.0237 20.4737 27.155 20.1314C27.2039 20.0039 27.1643 19.6561 27.0671 19.3586C26.9202 18.9093 26.9301 18.7228 27.125 18.2599C27.8182 16.6138 26.0059 14.9913 22.7141 14.3109C20.9562 13.9474 18.0426 13.9524 16.2918 14.3218ZM22.5743 15.2906C24.6386 15.7465 26.3208 16.753 26.3208 17.532C26.3208 18.3384 24.9488 19.2652 22.9576 19.804C21.3397 20.2418 17.7586 20.2418 16.1407 19.804C14.2832 19.3014 13.1078 18.5764 12.8697 17.7865C12.7384 17.3511 13.2527 16.614 13.9827 16.1912C15.9007 15.0802 19.7806 14.6735 22.5743 15.2906ZM30.2635 16.8834C31.9081 17.7069 33.604 18.0335 36.1731 18.0218C38.3734 18.0116 40.291 17.6546 41.6507 17.002C42.1602 16.7575 42.6291 16.5896 42.6927 16.6289C43.0001 16.8188 42.7784 17.4928 42.2403 18.0048C40.4261 19.7307 34.8698 20.1831 31.417 18.8862C30.2255 18.4386 29.4122 17.6871 29.4122 17.0338C29.4122 16.7599 29.4475 16.5357 29.4906 16.5357C29.5339 16.5357 29.8816 16.6922 30.2635 16.8834ZM26.1 21.3388C24.9531 21.5158 23.2244 22.0463 22.4505 22.4588C20.9482 23.2595 20.3243 24.3906 20.7657 25.514C20.9774 26.0531 20.9769 26.1568 20.7598 26.7095C20.5403 27.2683 20.5407 27.3672 20.7657 28.0003C20.9922 28.6385 20.9922 28.7332 20.7651 29.3648C20.5405 29.9897 20.5397 30.091 20.7564 30.6428C20.9654 31.1748 20.9679 31.3114 20.7788 31.8602C20.5655 32.4793 20.6199 33.2161 20.9051 33.5703C21.002 33.6907 20.9632 33.9748 20.7869 34.4365C20.5363 35.0927 20.5362 35.1562 20.7825 35.85C20.9918 36.439 21.0055 36.6186 20.8553 36.7995C20.6136 37.0908 20.6166 38.3805 20.8598 38.6735C21.0156 38.8615 21.0039 39.0209 20.7926 39.574C20.5815 40.1264 20.5653 40.3434 20.7012 40.7933C21.1702 42.3458 23.3653 43.4481 26.675 43.793C30.5947 44.2016 34.5262 43.1666 35.6805 41.4225C36.0266 40.8994 36.0618 40.7404 35.967 40.1266C35.8393 39.3009 35.8399 38.7636 35.969 37.937C36.0356 37.5113 35.9929 37.193 35.8258 36.87C35.6063 36.4456 35.6065 36.381 35.8273 36.0442C36.0058 35.7714 36.0428 35.5004 35.9723 34.9765C35.8516 34.0797 35.8508 33.5413 35.969 32.7847C36.0348 32.3642 35.9932 32.0411 35.8333 31.7321C35.624 31.3273 35.624 31.2437 35.8343 30.8219C35.9957 30.4986 36.0369 30.1699 35.9702 29.7398C35.8492 28.9606 35.8489 28.4009 35.969 27.6323C36.0356 27.2064 35.9929 26.8883 35.8257 26.5651C35.6107 26.1492 35.6094 26.0619 35.812 25.67C36.634 24.0806 35.2511 22.5596 32.1855 21.6811C31.3503 21.4419 30.5872 21.3602 28.8233 21.3212C27.5684 21.2933 26.3429 21.3014 26.1 21.3388ZM31.2209 22.4915C31.8514 22.6038 32.7833 22.8904 33.2916 23.1283C36.069 24.428 35.4838 25.9691 31.8151 27.0171C30.1326 27.4976 26.6476 27.4938 24.8497 27.0095C22.7894 26.4542 21.6101 25.6394 21.6101 24.7707C21.6101 23.9463 23.3358 22.9213 25.4375 22.4975C26.7112 22.2406 29.7957 22.2374 31.2209 22.4915ZM22.7878 27.3189C25.8204 28.7828 31.0206 28.7597 34.0251 27.269C34.5003 27.0333 34.9155 26.8403 34.9477 26.8403C34.9798 26.8403 35.0061 27.0751 35.0061 27.3622C35.0061 29.4748 28.8185 30.7306 24.4979 29.495C22.8041 29.0106 21.6101 28.128 21.6101 27.3603C21.6101 27.0286 21.7477 26.7975 21.8954 26.8811C21.9409 26.9069 22.3424 27.104 22.7878 27.3189ZM22.6595 29.8677C24.2135 30.6553 25.4135 30.8677 28.3081 30.8677C31.1974 30.8677 32.4256 30.6506 33.9948 29.8624C34.4024 29.6576 34.7967 29.4901 34.871 29.4901C34.9453 29.4901 35.0061 29.7096 35.0061 29.9778C35.0061 31.7729 29.966 33.0822 25.8315 32.3611C23.0558 31.8771 21.2681 30.7406 21.6632 29.7112C21.7736 29.4233 21.7863 29.4252 22.6595 29.8677ZM23.2032 32.6541C24.7377 33.2961 26.0286 33.5089 28.3817 33.5083C30.7382 33.5079 32.4204 33.2024 33.886 32.5091C34.3153 32.3061 34.7429 32.1399 34.8363 32.1399C35.0185 32.1399 35.0647 32.6993 34.9149 33.0898C34.76 33.4932 33.6247 34.1721 32.4102 34.5875C31.4172 34.9273 30.9415 34.9935 29.0705 35.0524C26.4939 35.1335 25.071 34.9448 23.5656 34.3224C22.1609 33.7415 21.2434 32.7028 21.7168 32.2295C21.843 32.1032 21.9796 32.1422 23.2032 32.6541ZM22.6367 35.0085C24.2653 35.8338 25.4221 36.0402 28.3817 36.0334C30.9283 36.0275 31.1911 36.0007 32.43 35.6205C33.1587 35.3967 33.9739 35.0852 34.2417 34.9282C34.9087 34.5367 35.0061 34.5646 35.0061 35.1462C35.0061 36.8812 30.272 38.1756 26.1 37.5812C23.3887 37.1949 21.2641 35.9036 21.6567 34.8805C21.7741 34.5744 21.7823 34.5756 22.6367 35.0085ZM22.9553 37.7259C24.4177 38.4029 26.0683 38.6878 28.4553 38.6746C30.7697 38.662 32.0737 38.4291 33.7323 37.7322C34.3085 37.4902 34.8307 37.2922 34.8929 37.2922C34.9552 37.2922 35.0061 37.4996 35.0061 37.7533C35.0061 39.1518 32.053 40.2785 28.3817 40.2807C26.1714 40.2822 24.4072 39.951 23.1023 39.2898C22.0379 38.7503 21.3227 37.7759 21.7083 37.3904C21.8609 37.2376 21.956 37.2632 22.9553 37.7259ZM22.2765 39.9966C22.4362 40.1076 23.0306 40.3651 23.5974 40.5686C26.5475 41.6287 31.2925 41.4818 33.8717 40.2508C34.3974 40 34.8676 39.7948 34.9168 39.7948C34.966 39.7948 35.0061 40.0197 35.0061 40.2947C35.0061 41.6985 31.9417 42.8823 28.3081 42.8823C24.8184 42.8823 21.6101 41.6524 21.6101 40.3147C21.6101 39.7721 21.8138 39.6749 22.2765 39.9966Z" fill="white"></path> <defs> <linearGradient id="paint0_linear_532_5484" x1="-26.5" y1="-28.5" x2="80.5" y2="55" gradientUnits="userSpaceOnUse"> <stop stop-color="white"></stop> <stop offset="1" stop-color="white" stop-opacity="0"></stop> </linearGradient> </defs> </svg> 